<svg xmlns="http://www.w3.org/2000/svg" xmlns:xlink="http://www.w3.org/1999/xlink" width="500px" height="500px" viewBox="100 100 1000 1000">
  <style>
    path {
      fill: rgb(17,17,17);
    }
  </style>
  <g id="8cd542ef-de0f-41a5-9584-74eda77b8a82" name="New Group">
    <g id="a8365acc-7d1e-4de2-b8de-44dda3e8b465"><path style="fill-opacity: 1.00; stroke: rgb(193,193,193); stroke-opacity: 1.00; stroke-linecap: butt; stroke-linejoin: miter; stroke-miterlimit: 10; stroke-width: 0; stroke-dashoffset: 0; fill-rule: nonzero;" d="M606.06911,120.69374l-0.38162,121.874c-81.76808,-0.25604 -148.50085,66.06011 -148.75689,147.82819c-0.25604,81.76808 66.06008,148.51022 147.82816,148.76626l-0.38162,121.874c-72.16816,-0.22598 -139.92647,-28.54445 -190.7944,-79.73194c-50.86792,-51.18749 -78.7615,-119.12182 -78.53552,-191.28998c0.22598,-72.16816 28.54445,-139.92647 79.73194,-190.7944c51.18749,-50.86792 119.12182,-78.7615 191.28998,-78.53552z"></path></g>
    <g id="910903e5-3ece-4ee7-949b-f36e0102da78"><path style="fill-opacity: 1.00; stroke: rgb(193,193,193); stroke-opacity: 1.00; stroke-linecap: butt; stroke-linejoin: miter; stroke-miterlimit: 10; stroke-width: 0; stroke-dashoffset: 0; fill-rule: nonzero;" d="M606.06917,330.13333l0.38162,121.874c81.76808,-0.25604 148.50085,66.06011 148.75689,147.82819c0.25604,81.76808 -66.06008,148.51022 -147.82816,148.76626l0.38162,121.874c72.16816,-0.22598 139.92647,-28.54445 190.7944,-79.73194c50.86792,-51.18749 78.7615,-119.12182 78.53552,-191.28998c-0.22598,-72.16816 -28.54445,-139.92647 -79.73194,-190.7944c-51.18749,-50.86792 -119.12182,-78.7615 -191.28998,-78.53552z"></path></g>
    <g id="b0aaab73-770a-4471-843b-8b476203be7f"><path style="fill-opacity: 1.00; stroke: rgb(193,193,193); stroke-opacity: 1.00; stroke-linecap: butt; stroke-linejoin: miter; stroke-miterlimit: 10; stroke-width: 0; stroke-dashoffset: 0; fill-rule: nonzero;" d="M593.93083,539.81918l-0.38162,121.874c-81.76808,-0.25604 -148.50085,66.06011 -148.75689,147.82819c-0.25604,81.76808 66.06008,148.51022 147.82816,148.76626l-0.38162,121.874c-72.16816,-0.22598 -139.92647,-28.54445 -190.7944,-79.73194c-50.86792,-51.18749 -78.7615,-119.12182 -78.53552,-191.28998c0.22598,-72.16816 28.54445,-139.92647 79.73194,-190.7944c51.18749,-50.86792 119.12182,-78.7615 191.28998,-78.53552z"></path></g>
    <g id="3a8ebdf6-297f-42e4-959b-04aa689cad0f"><path style="fill-opacity: 1.00; stroke: rgb(193,193,193); stroke-opacity: 1.00; stroke-linecap: butt; stroke-linejoin: miter; stroke-miterlimit: 10; stroke-width: 0; stroke-dashoffset: 0; fill-rule: nonzero;" d="M589.71864,1079.30626l0.38156,-121.874c81.76808,0.256 148.50081,-66.06018 148.75681,-147.82826c0.256,-81.76808 -66.06015,-148.51019 -147.82823,-148.76619l0.38156,-121.874c72.16816,0.22594 139.92649,28.54438 190.79444,79.73184c50.86795,51.18747 78.76156,119.12178 78.53561,191.28994c-0.22594,72.16816 -28.54438,139.92649 -79.73184,190.79444c-51.18747,50.86795 -119.12178,78.76156 -191.28994,78.53561z"></path></g>
  </g>
</svg>